<svg width="39" height="39" viewBox="0 0 39 39" fill="none" xmlns="http://www.w3.org/2000/svg">
<path d="M6.5 19.5L19.5 6.5L32.5 19.5M9.75 17.0625V30.875C9.75 31.306 9.92121 31.7193 10.226 32.024C10.5307 32.3288 10.944 32.5 11.375 32.5H16.25V27.625C16.25 27.194 16.4212 26.7807 16.726 26.476C17.0307 26.1712 17.444 26 17.875 26H21.125C21.556 26 21.9693 26.1712 22.274 26.476C22.5788 26.7807 22.75 27.194 22.75 27.625V32.5H27.625C28.056 32.5 28.4693 32.3288 28.774 32.024C29.0788 31.7193 29.25 31.306 29.25 30.875V17.0625" stroke="url(#paint0_linear_14_61)" stroke-width="2" stroke-linecap="round" stroke-linejoin="round"/>
<defs>
<linearGradient id="paint0_linear_14_61" x1="19.5" y1="6.5" x2="19.5" y2="32.5" gradientUnits="userSpaceOnUse">
<stop stop-color="#F472B6"/>
<stop offset="1" stop-color="#A855F7"/>
</linearGradient>
</defs>
</svg>
