<svg width="25" height="27" viewBox="0 0 25 27" fill="none" xmlns="http://www.w3.org/2000/svg">
<path d="M24 26.3642L19.5278 21.3705M18.8889 10.6696C18.8889 11.9812 18.6575 13.2799 18.208 14.4917C17.7585 15.7034 17.0997 16.8044 16.2691 17.7318C15.4386 18.6593 14.4525 19.3949 13.3673 19.8969C12.2821 20.3988 11.119 20.6571 9.94444 20.6571C8.76984 20.6571 7.60674 20.3988 6.52155 19.8969C5.43636 19.3949 4.45034 18.6593 3.61977 17.7318C2.7892 16.8044 2.13036 15.7034 1.68086 14.4917C1.23136 13.2799 1 11.9812 1 10.6696C1 8.02077 1.94236 5.48041 3.61977 3.6074C5.29718 1.73438 7.57223 0.682129 9.94444 0.682129C12.3167 0.682129 14.5917 1.73438 16.2691 3.6074C17.9465 5.48041 18.8889 8.02077 18.8889 10.6696Z" stroke="url(#paint0_linear_14_55)" stroke-linejoin="round"/>
<defs>
<linearGradient id="paint0_linear_14_55" x1="12.5" y1="0.682129" x2="12.5" y2="26.3642" gradientUnits="userSpaceOnUse">
<stop stop-color="#F472B6"/>
<stop offset="1" stop-color="#A855F7"/>
</linearGradient>
</defs>
</svg>
